<svg version="1.1" xmlns="http://www.w3.org/2000/svg" viewBox="0 0 1839.074963950144 2262" width="5517.224891850432" height="6786">
  <!-- svg-source:excalidraw -->
  
  <defs>
    <style>
      @font-face {
        font-family: "Virgil";
        src: url("https://excalidraw.com/Virgil.woff2");
      }
      @font-face {
        font-family: "Cascadia";
        src: url("https://excalidraw.com/Cascadia.woff2");
      }
    </style>
  </defs>
  <rect x="0" y="0" width="1839.074963950144" height="2262" fill="#ffffff"></rect><g stroke-linecap="round" transform="translate(1058 342) rotate(0 261.5 157)"><path d="M0.11 0.5 C139.88 -0.4, 281.61 -1.16, 522.87 -0.01 M0.24 -0.33 C140.4 0.23, 281.01 0.47, 523.4 -0.1 M522.9 0.89 C523.66 109.11, 522.1 214.74, 523.49 313.04 M522.38 0.44 C521.25 104.73, 520.3 210.98, 522.3 314.37 M523.55 313.79 C335.94 311.98, 147.93 311.68, 0.24 314.32 M522.8 314.05 C405.16 311.86, 286.95 312.6, 0.39 314.09 M-0.76 314.98 C-0.62 231.94, -1.62 151.44, 0.16 1.25 M-0.47 314.43 C-1.37 213.06, -1.19 113.83, -0.28 -0.41" stroke="#000000" stroke-width="1" fill="none"></path></g><g transform="translate(1063 347) rotate(0 256.5 143)"><text x="0" y="18" font-family="Virgil, Segoe UI Emoji" font-size="20px" fill="#000000" text-anchor="start" style="white-space: pre;" direction="ltr">startRound</text><text x="0" y="44" font-family="Virgil, Segoe UI Emoji" font-size="20px" fill="#000000" text-anchor="start" style="white-space: pre;" direction="ltr"></text><text x="0" y="70" font-family="Virgil, Segoe UI Emoji" font-size="20px" fill="#000000" text-anchor="start" style="white-space: pre;" direction="ltr">draw 11 cards for each player</text><text x="0" y="96" font-family="Virgil, Segoe UI Emoji" font-size="20px" fill="#000000" text-anchor="start" style="white-space: pre;" direction="ltr"></text><text x="0" y="122" font-family="Virgil, Segoe UI Emoji" font-size="20px" fill="#000000" text-anchor="start" style="white-space: pre;" direction="ltr">current_player = if (round_number != 1) {</text><text x="0" y="148" font-family="Virgil, Segoe UI Emoji" font-size="20px" fill="#000000" text-anchor="start" style="white-space: pre;" direction="ltr">  loser_of_the_previous_round</text><text x="0" y="174" font-family="Virgil, Segoe UI Emoji" font-size="20px" fill="#000000" text-anchor="start" style="white-space: pre;" direction="ltr">} else { </text><text x="0" y="200" font-family="Virgil, Segoe UI Emoji" font-size="20px" fill="#000000" text-anchor="start" style="white-space: pre;" direction="ltr">  pickRandomPlayer</text><text x="0" y="226" font-family="Virgil, Segoe UI Emoji" font-size="20px" fill="#000000" text-anchor="start" style="white-space: pre;" direction="ltr">}</text><text x="0" y="252" font-family="Virgil, Segoe UI Emoji" font-size="20px" fill="#000000" text-anchor="start" style="white-space: pre;" direction="ltr"></text><text x="0" y="278" font-family="Virgil, Segoe UI Emoji" font-size="20px" fill="#000000" text-anchor="start" style="white-space: pre;" direction="ltr">current player must playCards</text></g><g stroke-linecap="round" transform="translate(559 1409) rotate(0 328.5 135)"><path d="M-0.09 0.63 C247.04 0.78, 493.37 1.23, 656.28 -0.56 M0.11 0.22 C133.34 -2.2, 266.76 -1.86, 656.9 -0.21 M656.42 -0.43 C658.38 80.34, 658.78 160.02, 657.57 270.48 M656.71 0.32 C659.17 97.57, 658.04 195.72, 656.83 270.22 M656.88 269.68 C426.98 268.81, 198.75 268.85, -0.08 269.48 M656.92 270.24 C504.31 268.57, 351.61 268.62, 0.13 269.97 M1.03 269.03 C-0.85 168.42, 0.14 68.21, 0.5 -1.22 M0.63 269.51 C-1.66 202.81, -1.32 136.23, -0.47 -0.53" stroke="#000000" stroke-width="1" fill="none"></path></g><g transform="translate(564 1414) rotate(0 323.5 130)"><text x="0" y="18" font-family="Virgil, Segoe UI Emoji" font-size="20px" fill="#000000" text-anchor="start" style="white-space: pre;" direction="ltr">countRoundPoints</text><text x="0" y="44" font-family="Virgil, Segoe UI Emoji" font-size="20px" fill="#000000" text-anchor="start" style="white-space: pre;" direction="ltr"></text><text x="0" y="70" font-family="Virgil, Segoe UI Emoji" font-size="20px" fill="#000000" text-anchor="start" style="white-space: pre;" direction="ltr">1st player to play his last card wins (3 * round_number) points</text><text x="0" y="96" font-family="Virgil, Segoe UI Emoji" font-size="20px" fill="#000000" text-anchor="start" style="white-space: pre;" direction="ltr">2nd player to play his last card wins (2 * round_number) points</text><text x="0" y="122" font-family="Virgil, Segoe UI Emoji" font-size="20px" fill="#000000" text-anchor="start" style="white-space: pre;" direction="ltr">3rd player to play his last card wins round_number points</text><text x="0" y="148" font-family="Virgil, Segoe UI Emoji" font-size="20px" fill="#000000" text-anchor="start" style="white-space: pre;" direction="ltr">4th player to play his last card wins 0 points</text><text x="0" y="174" font-family="Virgil, Segoe UI Emoji" font-size="20px" fill="#000000" text-anchor="start" style="white-space: pre;" direction="ltr"></text><text x="0" y="200" font-family="Virgil, Segoe UI Emoji" font-size="20px" fill="#000000" text-anchor="start" style="white-space: pre;" direction="ltr">giveYellowJerseyToPlayerWithMostPoints</text><text x="0" y="226" font-family="Virgil, Segoe UI Emoji" font-size="20px" fill="#000000" text-anchor="start" style="white-space: pre;" direction="ltr"></text><text x="0" y="252" font-family="Virgil, Segoe UI Emoji" font-size="20px" fill="#000000" text-anchor="start" style="white-space: pre;" direction="ltr">if 2 players have most points, the winner of the round win</text></g><g stroke-linecap="round" transform="translate(15 315) rotate(0 110.5 114)"><path d="M131.51 2.29 C144.35 2.98, 158.26 10, 169.38 17.35 C180.5 24.71, 190.39 35.29, 198.2 46.41 C206.02 57.52, 212.44 70.75, 216.27 84.03 C220.09 97.31, 222.42 112.46, 221.15 126.09 C219.88 139.71, 214.93 153.83, 208.66 165.79 C202.39 177.74, 193.33 188.7, 183.53 197.81 C173.72 206.91, 162.23 215.48, 149.83 220.42 C137.44 225.36, 122.36 227.51, 109.16 227.46 C95.95 227.4, 83.02 224.94, 70.61 220.09 C58.19 215.24, 44.58 207.64, 34.67 198.34 C24.76 189.04, 16.74 176.84, 11.15 164.31 C5.57 151.77, 2.14 136.89, 1.16 123.13 C0.17 109.38, 1.79 94.69, 5.26 81.78 C8.73 68.86, 14.11 56.4, 21.96 45.63 C29.81 34.86, 40.82 24.33, 52.35 17.15 C63.87 9.98, 76.97 4.77, 91.1 2.57 C105.23 0.36, 128.64 3.1, 137.11 3.95 C145.58 4.79, 142.32 5.83, 141.9 7.65 M115.66 -0.01 C127.97 -1.45, 140.23 2.59, 152.48 8.03 C164.73 13.48, 179.19 22.88, 189.16 32.69 C199.12 42.5, 206.98 54.47, 212.27 66.89 C217.55 79.31, 220.08 93.45, 220.88 107.21 C221.68 120.96, 221.19 136.09, 217.06 149.42 C212.92 162.76, 204.52 176.48, 196.09 187.2 C187.65 197.92, 177.88 207.21, 166.46 213.77 C155.04 220.32, 140.94 224.58, 127.57 226.55 C114.19 228.52, 99.31 228.56, 86.21 225.58 C73.11 222.61, 59.92 216.57, 48.97 208.72 C38.01 200.88, 28.33 190, 20.49 178.53 C12.65 167.07, 5.1 152.92, 1.92 139.94 C-1.27 126.95, -0.76 114.07, 1.38 100.62 C3.53 87.17, 8.39 71.58, 14.79 59.27 C21.2 46.95, 29.75 35.73, 39.83 26.74 C49.9 17.74, 62.81 9.59, 75.23 5.28 C87.65 0.97, 107.87 1.43, 114.35 0.88 C120.83 0.33, 114.24 0.22, 114.12 1.98" stroke="#000000" stroke-width="1" fill="none"></path></g><g transform="translate(20 368.5) rotate(0 105.5 60)"><text x="105.5" y="17" font-family="Virgil, Segoe UI Emoji" font-size="20px" fill="#000000" text-anchor="middle" style="white-space: pre;" direction="ltr">user's option</text><text x="105.5" y="41" font-family="Virgil, Segoe UI Emoji" font-size="20px" fill="#000000" text-anchor="middle" style="white-space: pre;" direction="ltr"></text><text x="105.5" y="65" font-family="Virgil, Segoe UI Emoji" font-size="20px" fill="#000000" text-anchor="middle" style="white-space: pre;" direction="ltr">sort cards</text><text x="105.5" y="89" font-family="Virgil, Segoe UI Emoji" font-size="20px" fill="#000000" text-anchor="middle" style="white-space: pre;" direction="ltr">- [X] by color</text><text x="105.5" y="113" font-family="Virgil, Segoe UI Emoji" font-size="20px" fill="#000000" text-anchor="middle" style="white-space: pre;" direction="ltr">- [ ] by value</text></g><g stroke-linecap="round" transform="translate(10 194.16338582677167) rotate(0 301.5 272.41830708661416)"><path d="M-0.35 0.32 C147.22 1.67, 293.88 2.57, 603.39 0 M0.01 0.29 C129.92 -1.4, 260 -0.79, 602.89 0.12 M602.87 0.38 C602.32 184.62, 602.67 369.18, 603.26 544.93 M603.11 -0.38 C603.35 180.76, 603.48 362.08, 603.32 545.14 M602.57 544.59 C364.95 543.54, 127.07 544.3, -0.75 544.51 M602.86 544.47 C454.22 546.35, 306.28 546.22, -0.13 545.21 M0.54 544.16 C1.7 375.57, 1.44 206.8, -0.42 -0.29 M0.3 544.46 C0.34 419.31, 0.32 294.02, 0.38 -0.26" stroke="#000000" stroke-width="1" fill="none"></path></g><g transform="translate(15 199) rotate(0 97 43)"><text x="0" y="60" font-family="Virgil, Segoe UI Emoji" font-size="67.36842105263159px" fill="#000000" text-anchor="start" style="white-space: pre;" direction="ltr">Ideas</text></g><g stroke-linecap="round" transform="translate(845 1729) rotate(0 103.5 103.5)"><path d="M103.25 -1.74 C139.34 37.49, 178.21 75.08, 208.52 102.88 M103.04 -0.86 C126.35 24.26, 151.39 47.7, 207.59 104.62 M206.65 103.26 C176.34 137.7, 142.64 166, 104.65 206.67 M207.59 103.91 C173.17 137.64, 141.26 171.44, 104.74 207.83 M103.69 208.88 C62.89 165.96, 21.26 125.94, -0.95 104.08 M103.46 207.05 C73.23 176.68, 42.2 145.74, -0.71 103.94 M-0.45 105.71 C34.38 67.27, 73.16 33.43, 105.31 0.66 M-0.44 104.93 C36.27 69.1, 72.65 33.37, 104.49 -0.73" stroke="#000000" stroke-width="1" fill="none"></path></g><g transform="translate(850 1820) rotate(0 98.5 12)"><text x="98.5" y="17" font-family="Virgil, Segoe UI Emoji" font-size="20px" fill="#000000" text-anchor="middle" style="white-space: pre;" direction="ltr">round_number &gt;= 5</text></g><g stroke-linecap="round"><g transform="translate(1053.6413679850507 1825.6680470035776) rotate(0 386.84530551270035 -723.7192639919721)"><path d="M-0.19 0.98 C106.61 -83.94, 512.43 -289.13, 640.32 -508.9 C768.22 -728.68, 784.22 -1161.45, 767.18 -1317.66 C750.14 -1473.87, 576.31 -1424.74, 538.09 -1446.16 M-1.74 0.45 C105.47 -84.86, 514.04 -291.16, 642.6 -510.63 C771.16 -730.09, 787.03 -1160.04, 769.61 -1316.34 C752.19 -1472.64, 576.38 -1426.9, 538.06 -1448.42" stroke="#000000" stroke-width="1" fill="none"></path></g><g transform="translate(1053.6413679850507 1825.6680470035776) rotate(0 386.84530551270035 -723.7192639919721)"><path d="M569 -1456.24 C560.98 -1454.71, 552.03 -1452.41, 538.99 -1449.62 M568.02 -1455.36 C557.75 -1452.16, 547.18 -1449.43, 538.45 -1447.89" stroke="#000000" stroke-width="1" fill="none"></path></g><g transform="translate(1053.6413679850507 1825.6680470035776) rotate(0 386.84530551270035 -723.7192639919721)"><path d="M566.29 -1435.89 C558.87 -1439.7, 550.64 -1442.74, 538.99 -1449.62 M565.31 -1435.02 C556 -1438.87, 546.37 -1443.18, 538.45 -1447.89" stroke="#000000" stroke-width="1" fill="none"></path></g></g><g stroke-linecap="round"><g transform="translate(948.8769086845048 1936.9914332269723) rotate(0 -2.0689404960876914 32.355783025099186)"><path d="M1.2 0.47 C0.35 10.9, -4.36 52.93, -5.34 63.7 M0.37 -0.32 C-0.05 10.78, -1.98 54.44, -2.93 65.04" stroke="#000000" stroke-width="1" fill="none"></path></g><g transform="translate(948.8769086845048 1936.9914332269723) rotate(0 -2.0689404960876914 32.355783025099186)"><path d="M-10.61 35.28 C-9.41 44.38, -4.72 50.77, -1.04 66.52 M-12.2 36.6 C-8.4 46.66, -4.85 58.44, -2.53 65" stroke="#000000" stroke-width="1" fill="none"></path></g><g transform="translate(948.8769086845048 1936.9914332269723) rotate(0 -2.0689404960876914 32.355783025099186)"><path d="M9.87 36.57 C5.35 45.52, 4.33 51.54, -1.04 66.52 M8.28 37.89 C4.44 47.31, 0.36 58.61, -2.53 65" stroke="#000000" stroke-width="1" fill="none"></path></g></g><g transform="translate(969 1955) rotate(0 18.5 13)"><text x="0" y="18" font-family="Virgil, Segoe UI Emoji" font-size="20px" fill="#000000" text-anchor="start" style="white-space: pre;" direction="ltr">YES</text></g><g transform="translate(1051 1783) rotate(0 14 13)"><text x="0" y="18" font-family="Virgil, Segoe UI Emoji" font-size="20px" fill="#000000" text-anchor="start" style="white-space: pre;" direction="ltr">NO</text></g><g stroke-linecap="round"><g transform="translate(1314.4533153328175 258.61978237516144) rotate(0 5.48082126643817 40.55656149444653)"><path d="M0.68 0.08 C2.74 13.62, 9.45 68.38, 11.38 82.03 M-0.42 -0.92 C1.53 12.16, 8.17 66, 10.19 80.07" stroke="#000000" stroke-width="1" fill="none"></path></g><g transform="translate(1314.4533153328175 258.61978237516144) rotate(0 5.48082126643817 40.55656149444653)"><path d="M-3.55 52.71 C0.02 59.94, 3.02 65.25, 11.32 81.7 M-3.4 52.9 C1.1 60.76, 4.15 68.72, 11.08 80.68" stroke="#000000" stroke-width="1" fill="none"></path></g><g transform="translate(1314.4533153328175 258.61978237516144) rotate(0 5.48082126643817 40.55656149444653)"><path d="M16.79 50.01 C15.94 57.95, 14.49 63.85, 11.32 81.7 M16.95 50.2 C15.42 58.85, 12.44 67.61, 11.08 80.68" stroke="#000000" stroke-width="1" fill="none"></path></g></g><g stroke-linecap="round" transform="translate(1165 954.5) rotate(0 259 122)"><path d="M0.76 0.32 C115.33 -1.64, 231.62 -1.99, 518.39 -0.76 M0.35 0.28 C109.22 0.34, 218.93 -0.29, 517.89 0.07 M516.8 -1.17 C516.06 94.81, 515.84 191.02, 518.68 244.77 M518.09 0.68 C518.85 57.62, 518.19 116.08, 518.8 243.58 M517.97 244.25 C374.36 244.26, 230.63 243.98, -0.58 244.21 M518.3 244.15 C367.94 245.74, 217.5 245.78, -0.04 244.2 M-0.21 244.86 C-1.54 159.81, -1.32 77.15, 0.21 -0.05 M-0.05 243.56 C0.13 180.69, 0.09 119.28, 0.07 -0.59" stroke="#000000" stroke-width="1" fill="none"></path></g><g transform="translate(1170 959.5) rotate(0 254 117)"><text x="0" y="18" font-family="Virgil, Segoe UI Emoji" font-size="20px" fill="#000000" text-anchor="start" style="white-space: pre;" direction="ltr">passTurn</text><text x="0" y="44" font-family="Virgil, Segoe UI Emoji" font-size="20px" fill="#000000" text-anchor="start" style="white-space: pre;" direction="ltr"></text><text x="0" y="70" font-family="Virgil, Segoe UI Emoji" font-size="20px" fill="#000000" text-anchor="start" style="white-space: pre;" direction="ltr">if (next_player == player of last_played_card) {</text><text x="0" y="96" font-family="Virgil, Segoe UI Emoji" font-size="20px" fill="#000000" text-anchor="start" style="white-space: pre;" direction="ltr">  resetPlayedCards</text><text x="0" y="122" font-family="Virgil, Segoe UI Emoji" font-size="20px" fill="#000000" text-anchor="start" style="white-space: pre;" direction="ltr"></text><text x="0" y="148" font-family="Virgil, Segoe UI Emoji" font-size="20px" fill="#000000" text-anchor="start" style="white-space: pre;" direction="ltr">  if (number_of_cards of next_player == 0) {</text><text x="0" y="174" font-family="Virgil, Segoe UI Emoji" font-size="20px" fill="#000000" text-anchor="start" style="white-space: pre;" direction="ltr">    next_player must chooseAnotherNextPlayer</text><text x="0" y="200" font-family="Virgil, Segoe UI Emoji" font-size="20px" fill="#000000" text-anchor="start" style="white-space: pre;" direction="ltr">  }</text><text x="0" y="226" font-family="Virgil, Segoe UI Emoji" font-size="20px" fill="#000000" text-anchor="start" style="white-space: pre;" direction="ltr">}</text></g><g stroke-linecap="round"><g transform="translate(745.9680672175505 1680) rotate(0 63.38727908993988 62.079371750641826)"><path d="M-0.47 0.26 C20.84 20.96, 105.9 104.16, 127.24 124.81 M1.49 -0.65 C22.76 19.7, 105.73 102.81, 126.73 123.27" stroke="#000000" stroke-width="1" fill="none"></path></g><g transform="translate(745.9680672175505 1680) rotate(0 63.38727908993988 62.079371750641826)"><path d="M99.9 112.12 C108.21 115.96, 114.02 118.69, 128 121.32 M99.24 111.15 C104.28 113.53, 110.76 116.79, 126.58 123.31" stroke="#000000" stroke-width="1" fill="none"></path></g><g transform="translate(745.9680672175505 1680) rotate(0 63.38727908993988 62.079371750641826)"><path d="M114.33 97.53 C119.09 104.97, 121.28 111.37, 128 121.32 M113.67 96.56 C115.7 102, 119.18 108.29, 126.58 123.31" stroke="#000000" stroke-width="1" fill="none"></path></g></g><g stroke-linecap="round" transform="translate(1175 10) rotate(0 123.5 124)"><path d="M115.55 -0.35 C128.72 -3.08, 145.26 0.54, 158.78 4.64 C172.3 8.74, 185.46 15.63, 196.65 24.27 C207.85 32.91, 218.17 44.67, 225.95 56.49 C233.72 68.32, 239.91 81.61, 243.3 95.21 C246.69 108.82, 247.79 124.21, 246.27 138.1 C244.76 151.99, 240.44 165.96, 234.22 178.56 C228 191.16, 219.12 203.74, 208.94 213.71 C198.76 223.68, 186.18 232.84, 173.14 238.39 C160.1 243.93, 144.75 246.19, 130.67 246.99 C116.59 247.8, 102.19 247.13, 88.65 243.24 C75.12 239.35, 60.78 232.05, 49.47 223.66 C38.16 215.27, 28.43 204.7, 20.78 192.9 C13.14 181.09, 6.99 166.74, 3.62 152.83 C0.24 138.92, -1.2 123.64, 0.53 109.46 C2.26 95.28, 7.58 80.26, 14 67.73 C20.41 55.2, 29.03 43.87, 39 34.29 C48.98 24.7, 60.25 15.97, 73.85 10.22 C87.46 4.46, 111.73 1.17, 120.63 -0.26 C129.53 -1.68, 126.89 -0.32, 127.24 1.66 M148.42 2.25 C162.22 2.77, 177.32 9.71, 189.09 16.89 C200.87 24.07, 210.36 34.19, 219.06 45.35 C227.77 56.51, 236.55 70.37, 241.33 83.85 C246.1 97.34, 248.06 112.14, 247.74 126.25 C247.41 140.35, 244.55 154.99, 239.39 168.49 C234.22 181.98, 226.38 196.57, 216.75 207.2 C207.13 217.83, 194.11 225.75, 181.64 232.24 C169.17 238.73, 155.85 244.11, 141.93 246.15 C128.01 248.19, 111.81 247.35, 98.13 244.49 C84.45 241.63, 71.83 236, 59.85 228.99 C47.88 221.99, 35.33 213.38, 26.29 202.46 C17.25 191.55, 10.23 176.91, 5.64 163.51 C1.05 150.11, -1.96 136.18, -1.27 122.05 C-0.58 107.91, 4.52 91.85, 9.79 78.69 C15.07 65.54, 21.09 53.51, 30.4 43.1 C39.72 32.69, 53.47 22.95, 65.68 16.25 C77.9 9.54, 89.97 5.08, 103.69 2.87 C117.4 0.66, 140.78 2.57, 147.95 3.01 C155.12 3.44, 147.34 3.62, 146.71 5.46" stroke="#000000" stroke-width="1" fill="none"></path></g><g transform="translate(1180 86) rotate(0 118.5 48)"><text x="118.5" y="17" font-family="Virgil, Segoe UI Emoji" font-size="20px" fill="#000000" text-anchor="middle" style="white-space: pre;" direction="ltr">START GAME</text><text x="118.5" y="41" font-family="Virgil, Segoe UI Emoji" font-size="20px" fill="#000000" text-anchor="middle" style="white-space: pre;" direction="ltr"></text><text x="118.5" y="65" font-family="Virgil, Segoe UI Emoji" font-size="20px" fill="#000000" text-anchor="middle" style="white-space: pre;" direction="ltr">4 players</text><text x="118.5" y="89" font-family="Virgil, Segoe UI Emoji" font-size="20px" fill="#000000" text-anchor="middle" style="white-space: pre;" direction="ltr">5 rounds</text></g><g stroke-linecap="round" transform="translate(824.5 2004) rotate(0 123.5 124)"><path d="M124.85 0.29 C137.98 -1.51, 152.16 3.44, 165.2 8.35 C178.23 13.27, 192.19 20.79, 203.05 29.77 C213.91 38.76, 223.35 50.21, 230.36 62.25 C237.37 74.29, 242.65 88.23, 245.11 102.02 C247.58 115.8, 247.72 130.99, 245.15 144.95 C242.59 158.92, 236.77 173.39, 229.72 185.81 C222.67 198.22, 213.71 210.39, 202.84 219.43 C191.97 228.46, 177.7 235.21, 164.49 239.99 C151.28 244.77, 137.54 248.15, 123.58 248.12 C109.63 248.08, 94.16 244.62, 80.76 239.77 C67.36 234.92, 53.76 227.89, 43.19 219.02 C32.61 210.15, 24.22 198.73, 17.3 186.56 C10.38 174.38, 4.23 160.08, 1.66 145.98 C-0.91 131.87, -0.48 115.9, 1.89 101.95 C4.26 87.99, 8.67 74.27, 15.88 62.23 C23.09 50.19, 34.06 39.02, 45.14 29.71 C56.23 20.4, 68.87 11.39, 82.4 6.37 C95.92 1.34, 118.31 0.1, 126.28 -0.46 C134.24 -1.03, 130.01 0.91, 130.16 2.98 M167.06 7.77 C180.35 10.99, 193.42 21.18, 204.02 30.6 C214.63 40.02, 223.84 52.2, 230.69 64.27 C237.54 76.35, 242.99 89.25, 245.12 103.06 C247.24 116.87, 245.95 133.11, 243.42 147.14 C240.89 161.16, 237.15 175.2, 229.94 187.23 C222.73 199.25, 210.91 210.3, 200.15 219.3 C189.4 228.3, 178.69 236.22, 165.4 241.22 C152.1 246.22, 134.68 249.39, 120.39 249.29 C106.09 249.18, 92.74 245.77, 79.63 240.58 C66.51 235.4, 52.2 227.6, 41.71 218.16 C31.21 208.72, 23.22 196.39, 16.66 183.96 C10.09 171.53, 4.61 157.27, 2.32 143.59 C0.03 129.9, 0.35 115.57, 2.92 101.84 C5.5 88.12, 10.72 73.81, 17.78 61.24 C24.83 48.66, 34.23 35.68, 45.26 26.4 C56.29 17.12, 70.67 9.94, 83.95 5.56 C97.24 1.19, 110.89 -0.51, 124.99 0.15 C139.09 0.81, 161.6 7.86, 168.55 9.54 C175.51 11.22, 167.61 8.66, 166.71 10.24" stroke="#000000" stroke-width="1" fill="none"></path></g><g transform="translate(829.5 2079.5) rotate(0 118.5 48)"><text x="118.5" y="17" font-family="Virgil, Segoe UI Emoji" font-size="20px" fill="#000000" text-anchor="middle" style="white-space: pre;" direction="ltr">END GAME</text><text x="118.5" y="41" font-family="Virgil, Segoe UI Emoji" font-size="20px" fill="#000000" text-anchor="middle" style="white-space: pre;" direction="ltr"></text><text x="118.5" y="65" font-family="Virgil, Segoe UI Emoji" font-size="20px" fill="#000000" text-anchor="middle" style="white-space: pre;" direction="ltr">winner is the one who </text><text x="118.5" y="89" font-family="Virgil, Segoe UI Emoji" font-size="20px" fill="#000000" text-anchor="middle" style="white-space: pre;" direction="ltr">has the yellow jersey</text></g><g stroke-linecap="round" transform="translate(1096 781) rotate(0 174.5 35)"><path d="M-0.28 -0.61 C103.54 -0.03, 206.86 0.09, 349.64 -0.78 M-0.57 0.36 C140.14 -2.33, 279.28 -1.75, 349.63 -0.36 M349.82 -1.13 C347.52 25.3, 350.18 52.77, 348.75 71.75 M348.97 -0.52 C349.25 14.7, 350.35 30.28, 349.53 70.12 M350.07 70.17 C278.86 70.33, 207.56 72.65, -0.95 68.86 M349.64 70.03 C267.05 67.72, 183.51 68.15, 0.65 69.73 M-0.97 68.01 C-1.18 47.96, -1.01 25.14, -0.39 -1.51 M-0.21 69.11 C-0.08 51.83, -0.52 33.88, -0.2 -0.44" stroke="#000000" stroke-width="1" fill="none"></path></g><g transform="translate(1101 804) rotate(0 169.5 12)"><text x="169.5" y="17" font-family="Virgil, Segoe UI Emoji" font-size="20px" fill="#000000" text-anchor="middle" style="white-space: pre;" direction="ltr">current_player = next_player</text></g><g stroke-linecap="round" transform="translate(748.5 963.5) rotate(0 180.5 96)"><path d="M0.14 0.13 C99.3 1.89, 200.88 1.95, 360.01 0.67 M-0.17 -0.11 C103.04 -1.77, 205.31 -2.72, 360.55 -0.47 M361.89 -0.86 C359.93 75.55, 361.45 149.64, 362.68 192.2 M360.55 0.45 C359.65 70.04, 359.38 141.02, 361.32 191.36 M360.4 191.13 C268.37 191.64, 178.01 191.83, -1.19 193.07 M360.67 192.51 C231 190.16, 102.07 190.36, 0.51 191.69 M-1.22 191.25 C1.03 133.48, -1.37 74.89, 0.96 -1.63 M-0.73 192.97 C-1.62 131.76, -2.01 69.8, 0.5 0.08" stroke="#000000" stroke-width="1" fill="none"></path></g><g transform="translate(753.5 968.5) rotate(0 175.5 91)"><text x="0" y="18" font-family="Virgil, Segoe UI Emoji" font-size="20px" fill="#000000" text-anchor="start" style="white-space: pre;" direction="ltr">playCards &gt; last_played_cards</text><text x="0" y="44" font-family="Virgil, Segoe UI Emoji" font-size="20px" fill="#000000" text-anchor="start" style="white-space: pre;" direction="ltr"></text><text x="0" y="70" font-family="Virgil, Segoe UI Emoji" font-size="20px" fill="#000000" text-anchor="start" style="white-space: pre;" direction="ltr">if (last card is played) {</text><text x="0" y="96" font-family="Virgil, Segoe UI Emoji" font-size="20px" fill="#000000" text-anchor="start" style="white-space: pre;" direction="ltr">  current_player wins this round, </text><text x="0" y="122" font-family="Virgil, Segoe UI Emoji" font-size="20px" fill="#000000" text-anchor="start" style="white-space: pre;" direction="ltr">he becomes spectator and waits </text><text x="0" y="148" font-family="Virgil, Segoe UI Emoji" font-size="20px" fill="#000000" text-anchor="start" style="white-space: pre;" direction="ltr">for other players to finish</text><text x="0" y="174" font-family="Virgil, Segoe UI Emoji" font-size="20px" fill="#000000" text-anchor="start" style="white-space: pre;" direction="ltr">}</text></g><g stroke-linecap="round"><g transform="translate(1346.0890118948905 658.1273390480013) rotate(0 -17.81482203775704 59.65077814504838)"><path d="M0.97 0.86 C-4.88 20.51, -29.87 98.18, -36.11 117.88 M0.03 0.27 C-5.83 20.05, -30.44 99.58, -36.6 119.03" stroke="#000000" stroke-width="1" fill="none"></path></g><g transform="translate(1346.0890118948905 658.1273390480013) rotate(0 -17.81482203775704 59.65077814504838)"><path d="M-36.55 90.49 C-38.92 96.52, -36.6 100.28, -37.77 119.8 M-38 89.07 C-36.39 97.98, -36.02 106.6, -35.75 119.81" stroke="#000000" stroke-width="1" fill="none"></path></g><g transform="translate(1346.0890118948905 658.1273390480013) rotate(0 -17.81482203775704 59.65077814504838)"><path d="M-16.97 96.61 C-23.65 101.45, -25.65 103.86, -37.77 119.8 M-18.41 95.19 C-22.87 102.31, -28.53 109.05, -35.75 119.81" stroke="#000000" stroke-width="1" fill="none"></path></g></g><g stroke-linecap="round"><g transform="translate(1206.437343479999 853.3329847073946) rotate(0 -72.34849266356463 54.81653523280659)"><path d="M-0.17 0.7 C-24.29 18.84, -120.82 91.42, -144.52 109.61 M-1.72 0.02 C-25.52 17.72, -118.95 89.75, -142.44 107.72" stroke="#000000" stroke-width="1" fill="none"></path></g><g transform="translate(1206.437343479999 853.3329847073946) rotate(0 -72.34849266356463 54.81653523280659)"><path d="M-125.16 80.42 C-130.53 91.95, -135.28 96.63, -144.37 106.44 M-126.35 81.79 C-131.99 91.66, -137.8 100.51, -143 108.04" stroke="#000000" stroke-width="1" fill="none"></path></g><g transform="translate(1206.437343479999 853.3329847073946) rotate(0 -72.34849266356463 54.81653523280659)"><path d="M-112.66 96.7 C-122.1 103.05, -130.82 102.57, -144.37 106.44 M-113.86 98.07 C-124.06 102.18, -134.27 105.29, -143 108.04" stroke="#000000" stroke-width="1" fill="none"></path></g></g><g stroke-linecap="round"><g transform="translate(1301.1484291226625 852) rotate(0 34.66933357251122 50.90435049588791)"><path d="M0.82 0.67 C12.55 17.29, 58.15 83.94, 69.55 100.71 M-0.21 -0.03 C11.44 16.65, 57.19 84.74, 68.6 101.84" stroke="#000000" stroke-width="1" fill="none"></path></g><g transform="translate(1301.1484291226625 852) rotate(0 34.66933357251122 50.90435049588791)"><path d="M45.49 84.15 C48.74 87.46, 55.31 90.72, 69.77 103.28 M45.01 84.92 C51.83 91.19, 61.51 96.65, 68.02 101.29" stroke="#000000" stroke-width="1" fill="none"></path></g><g transform="translate(1301.1484291226625 852) rotate(0 34.66933357251122 50.90435049588791)"><path d="M62.54 72.72 C61.99 78.76, 64.66 84.62, 69.77 103.28 M62.06 73.49 C63.02 83.53, 66.9 92.88, 68.02 101.29" stroke="#000000" stroke-width="1" fill="none"></path></g></g><g stroke-linecap="round"><g transform="translate(1686.1797560394502 1051.47228849766) rotate(0 -93.23514956673068 -115.40488190023774)"><path d="M0.17 1.15 C6.67 -4.18, 37.28 0.07, 40 -31.52 C42.71 -63.12, 62.13 -155, 16.46 -188.4 C-29.2 -221.81, -192.08 -224.78, -234 -231.96 M-1.19 0.71 C5.59 -4.56, 39.41 0.84, 42.28 -30.54 C45.15 -61.92, 62.03 -154.15, 16.04 -187.58 C-29.95 -221.01, -192.1 -223.85, -233.66 -231.11" stroke="#000000" stroke-width="1" fill="none"></path></g><g transform="translate(1686.1797560394502 1051.47228849766) rotate(0 -93.23514956673068 -115.40488190023774)"><path d="M-202.67 -239.92 C-217.5 -234.57, -228.5 -232.48, -234.47 -232.53 M-204.18 -237.66 C-212.92 -235.84, -221.21 -233.88, -233.74 -231.64" stroke="#000000" stroke-width="1" fill="none"></path></g><g transform="translate(1686.1797560394502 1051.47228849766) rotate(0 -93.23514956673068 -115.40488190023774)"><path d="M-204.69 -219.5 C-218.83 -222.01, -229.04 -227.79, -234.47 -232.53 M-206.2 -217.24 C-214.45 -221.49, -222.14 -225.6, -233.74 -231.64" stroke="#000000" stroke-width="1" fill="none"></path></g></g><g stroke-linecap="round" transform="translate(666 1180) rotate(0 227 105)"><path d="M229.43 1.58 C278.3 25.22, 330.75 47.84, 452.64 106.13 M227.45 0.66 C274.07 20.75, 321.56 41.78, 454.8 106.32 M455.26 105.55 C388.75 135.73, 324.86 165.33, 226.82 211.24 M453.44 106.04 C399.56 130.8, 345.86 156.01, 227.33 209.25 M229.02 210.67 C170.19 184.32, 112.03 157.27, 1.16 106.38 M228.62 209.47 C175.78 187.02, 121.39 162.05, 0.35 106.1 M-1.51 106.47 C66.99 73.37, 135.15 44.65, 229.14 -0.88 M-0.72 105.76 C50.12 81.05, 101.23 57.27, 228.01 -0.54" stroke="#000000" stroke-width="1" fill="none"></path></g><g transform="translate(671 1273) rotate(0 222 12)"><text x="222" y="17" font-family="Virgil, Segoe UI Emoji" font-size="20px" fill="#000000" text-anchor="middle" style="white-space: pre;" direction="ltr">number_of_players who have cards == 1</text></g><g stroke-linecap="round"><g transform="translate(1035.7061612436596 1157.4406674001066) rotate(0 -19.245552294655283 34.17129174818763)"><path d="M0.17 -0.58 C-6.32 10.93, -31.6 57.49, -37.99 68.92 M-1.21 1.73 C-7.88 12.87, -32.4 55.75, -38.66 66.96" stroke="#000000" stroke-width="1" fill="none"></path></g><g transform="translate(1035.7061612436596 1157.4406674001066) rotate(0 -19.245552294655283 34.17129174818763)"><path d="M-34.65 38.27 C-35.07 49.08, -38.48 61, -36.73 67.93 M-33.41 37.47 C-35.99 45.41, -36.74 52.64, -38.63 67.73" stroke="#000000" stroke-width="1" fill="none"></path></g><g transform="translate(1035.7061612436596 1157.4406674001066) rotate(0 -19.245552294655283 34.17129174818763)"><path d="M-16.8 48.39 C-23.9 55.43, -34 63.56, -36.73 67.93 M-15.56 47.59 C-22.59 52.91, -27.85 57.58, -38.63 67.73" stroke="#000000" stroke-width="1" fill="none"></path></g></g><g stroke-linecap="round"><g transform="translate(1069.3516124799755 1309.5294654902407) rotate(0 -17.03468084560251 48.97860371934439)"><path d="M-0.38 -0.73 C-6.06 15.6, -29.22 82.07, -34.79 98.68 M1.62 1.51 C-4.15 17.38, -29.76 80.77, -35.69 96.67" stroke="#000000" stroke-width="1" fill="none"></path></g><g transform="translate(1069.3516124799755 1309.5294654902407) rotate(0 -17.03468084560251 48.97860371934439)"><path d="M-36.22 66.83 C-34.63 75.78, -34.31 81.85, -34.44 95.69 M-34.79 67.49 C-34.89 79.18, -35.37 90.87, -36.49 96.78" stroke="#000000" stroke-width="1" fill="none"></path></g><g transform="translate(1069.3516124799755 1309.5294654902407) rotate(0 -17.03468084560251 48.97860371934439)"><path d="M-17.1 74.29 C-20.19 81.37, -24.51 85.63, -34.44 95.69 M-15.68 74.95 C-23.37 83.66, -31.42 92.4, -36.49 96.78" stroke="#000000" stroke-width="1" fill="none"></path></g></g><g stroke-linecap="round"><g transform="translate(663.6604411318322 1283.7451252582186) rotate(0 174.13828603316 -233.5801696376261)"><path d="M0.21 0.9 C-9.01 -66.55, -125.44 -326.55, -54.45 -404.71 C16.53 -482.87, 346.14 -457.54, 426.13 -468.06 M-1.15 0.32 C-10.57 -67.44, -126.36 -328.42, -55.29 -406.29 C15.77 -484.16, 345.15 -456.82, 425.26 -466.9" stroke="#000000" stroke-width="1" fill="none"></path></g><g transform="translate(663.6604411318322 1283.7451252582186) rotate(0 174.13828603316 -233.5801696376261)"><path d="M398.8 -455.67 C409.32 -460.41, 417.36 -465.41, 425.13 -465.82 M396.9 -456.02 C406.29 -459.97, 417.96 -464.4, 425.94 -466.44" stroke="#000000" stroke-width="1" fill="none"></path></g><g transform="translate(663.6604411318322 1283.7451252582186) rotate(0 174.13828603316 -233.5801696376261)"><path d="M398.34 -476.19 C409.03 -473.38, 417.24 -470.83, 425.13 -465.82 M396.44 -476.54 C405.91 -473.27, 417.74 -470.5, 425.94 -466.44" stroke="#000000" stroke-width="1" fill="none"></path></g></g><g transform="translate(590 1261) rotate(0 14 13)"><text x="0" y="18" font-family="Virgil, Segoe UI Emoji" font-size="20px" fill="#000000" text-anchor="start" style="white-space: pre;" direction="ltr">NO</text></g><g transform="translate(1058.5 1369) rotate(0 18.5 13)"><text x="0" y="18" font-family="Virgil, Segoe UI Emoji" font-size="20px" fill="#000000" text-anchor="start" style="white-space: pre;" direction="ltr">YES</text></g></svg>